#N canvas 0 22 593 449 10;
#X obj 53 174 +~;
#X obj 55 205 osc~;
#X obj 134 101 osc~;
#X obj 134 145 *~;
#X obj 46 21 inlet;
#X obj 134 38 *~;
#X obj 182 108 *~;
#X text 171 148 modulator amplitude;
#X obj 152 2 inlet;
#X text 137 -29 harmocity ratio;
#X text 5 -6 carrier frequency;
#X text 217 12 modulation index;
#X text 72 99 mod osc;
#X text 100 204 carrer osc;
#X obj 54 261 outlet~;
#X text 60 285 volume control on main page;
#X obj 227 42 inlet~;
#X connect 0 0 1 0;
#X connect 1 0 14 0;
#X connect 2 0 3 0;
#X connect 3 0 0 1;
#X connect 4 0 0 0;
#X connect 4 0 5 0;
#X connect 5 0 2 0;
#X connect 5 0 6 0;
#X connect 6 0 3 1;
#X connect 8 0 5 1;
#X connect 16 0 6 1;
