#N canvas 295 95 819 586 10;
#X obj 469 341 ctlin 1;
#X obj 433 410 vsl 15 128 0 127 0 0 empty empty empty 0 -9 0 10 -262144
-1 -1 0 1;
#X obj 403 134 vsl 15 128 0 127 0 0 empty empty empty 0 -9 0 10 -262144
-1 -1 5200 1;
#X obj 436 70 ctlin 2;
#X obj 716 147 ctlin 3;
#X obj 663 204 vsl 15 128 0 127 0 0 empty empty empty 0 -9 0 10 -262144
-1 -1 12700 1;
#X obj 269 23 ctlin 4;
#X obj 245 111 vsl 15 128 0 127 0 0 empty empty empty 0 -9 0 10 -262144
-1 -1 0 1;
#X text 521 342 electret mic;
#X text 668 154 pitch;
#X text 483 68 heading;
#X text 322 32 roll (left right);
#X obj 74 345 nbx 5 14 -1e+37 1e+37 0 0 empty empty empty 0 -8 0 10
-262144 -1 -1 258 256;
#X obj 147 344 nbx 5 14 -1e+37 1e+37 0 0 empty empty empty 0 -8 0 10
-262144 -1 -1 1 256;
#X obj 223 358 line~;
#X obj 336 365 line~;
#X obj 90 448 *~;
#X floatatom 105 524 5 0 0 0 - - -, f 5;
#X obj 143 502 / 127;
#X obj 142 547 vline~;
#X msg 142 524 \$1 1;
#X obj 90 571 *~;
#X obj 82 618 dac~;
#X msg 146 310 1;
#X msg 73 314 580;
#X msg 58 277 258;
#X obj 86 393 fmabstraction;
#X msg 177 310 5;
#X obj 98 207 loadbang;
#X connect 0 0 1 0;
#X connect 1 0 18 0;
#X connect 2 0 15 0;
#X connect 3 0 2 0;
#X connect 4 0 5 0;
#X connect 6 0 7 0;
#X connect 7 0 14 0;
#X connect 12 0 26 0;
#X connect 13 0 26 1;
#X connect 14 0 26 2;
#X connect 15 0 16 1;
#X connect 16 0 21 0;
#X connect 18 0 17 0;
#X connect 18 0 20 0;
#X connect 19 0 21 1;
#X connect 20 0 19 0;
#X connect 21 0 22 0;
#X connect 21 0 22 1;
#X connect 23 0 13 0;
#X connect 24 0 12 0;
#X connect 25 0 12 0;
#X connect 26 0 16 0;
#X connect 27 0 13 0;
#X connect 28 0 25 0;
#X connect 28 0 23 0;
