#N canvas 412 61 819 586 10;
#X obj 429 317 ctlin 1;
#X obj 430 358 vsl 15 128 0 127 0 0 empty empty empty 0 -9 0 10 -262144
-1 -1 0 1;
#X obj 192 127 vsl 15 128 0 127 0 0 empty empty empty 0 -9 0 10 -262144
-1 -1 4700 1;
#X obj 191 86 ctlin 2;
#X obj 716 147 ctlin 3;
#X obj 663 204 vsl 15 128 0 127 0 0 empty empty empty 0 -9 0 10 -262144
-1 -1 12700 1;
#X obj 282 141 ctlin 4;
#X obj 282 179 vsl 15 128 0 127 0 0 empty empty empty 0 -9 0 10 -262144
-1 -1 1700 1;
#X text 481 318 electret mic;
#X text 668 154 pitch;
#X text 238 84 heading;
#X text 335 150 roll (left right);
#X obj 74 345 nbx 5 14 -1e+37 1e+37 0 0 empty empty empty 0 -8 0 10
-262144 -1 -1 580 256;
#X obj 147 344 nbx 5 14 -1e+37 1e+37 0 0 empty empty empty 0 -8 0 10
-262144 -1 -1 0.370079 256;
#X floatatom 186 520 5 0 0 0 - - -, f 5;
#X obj 224 498 / 127;
#X obj 223 543 vline~;
#X msg 223 520 \$1 1;
#X obj 171 567 *~;
#X obj 82 618 dac~;
#X msg 146 310 1;
#X msg 73 314 580;
#X msg 58 277 258;
#X obj 86 393 fmabstraction;
#X msg 177 310 5;
#X obj 98 207 loadbang;
#X obj 193 277 / 127;
#X obj 282 334 / 7;
#X obj 90 448 *~ 0.5;
#X text 29 35 connect a potentiometer for stuff?;
#X connect 0 0 1 0;
#X connect 1 0 15 0;
#X connect 2 0 26 0;
#X connect 3 0 2 0;
#X connect 4 0 5 0;
#X connect 6 0 7 0;
#X connect 7 0 27 0;
#X connect 12 0 23 0;
#X connect 13 0 23 1;
#X connect 15 0 14 0;
#X connect 15 0 17 0;
#X connect 16 0 18 1;
#X connect 17 0 16 0;
#X connect 18 0 19 0;
#X connect 18 0 19 1;
#X connect 20 0 13 0;
#X connect 21 0 12 0;
#X connect 22 0 12 0;
#X connect 23 0 28 0;
#X connect 24 0 13 0;
#X connect 25 0 22 0;
#X connect 25 0 20 0;
#X connect 26 0 13 0;
#X connect 27 0 23 2;
#X connect 28 0 18 0;
